<?xml version="1.0" encoding="UTF-8"?>
<svg width="237px" height="237px" viewBox="0 0 237 237" version="1.1" xmlns="http://www.w3.org/2000/svg" xmlns:xlink="http://www.w3.org/1999/xlink">
    <title>编组 4</title>
    <g id="AhaClub-官网" stroke="none" stroke-width="1" fill="none" fill-rule="evenodd">
        <g id="Apple-TV" transform="translate(-103.000000, -940.000000)">
            <g id="编组-4" transform="translate(103.000000, 940.000000)">
                <circle id="椭圆形" fill="#000000" cx="118.5" cy="118.5" r="118.5"></circle>
                <circle id="椭圆形" fill="#FFCA00" cx="132" cy="134" r="99"></circle>
                <g id="编组-3" transform="translate(77.000000, 85.000000)">
                    <path d="M71.6525009,126.475721 C58.4166861,120.036413 48.3447394,111.881281 41.4366606,102.010324 C42.6174407,97.6514277 43.2078307,93.3487222 43.2078307,89.1022072 C43.2078307,87.6498161 42.1446048,86.2923891 40.1757819,85.4988182 C35.7700186,83.7229928 22.9250407,79.1188372 15.3075811,68.4380672 C11.7991562,63.5187528 9.78035302,59.3890941 8.36194104,54.2600499 C2.02076598,31.3300638 1.21517993,6.55386698 1.75380769,2.40063487 C1.6298604,1.47866183 3.38773003,0.400740091 4.94924759,1.18105907 C27.0030559,10.0706148 49.1916984,20.5738548 71.6525009,29.0455856 C73.0869517,29.5866295 74.0262987,29.3844342 75.7021777,29.0455856 C83.5557049,23.511871 92.0582378,17.8606594 104.603683,22.2888042 C104.779866,22.350991 100.243374,29.0455856 99.4306906,30.3248252 C97.573784,33.2477685 93.9886905,39.0050813 94.54465,44.9324213 C96.2810625,63.4451141 145.559115,125.705783 147,126.475721 C147.580296,126.785803 99.969677,140.252208 71.6525009,126.475721 Z" id="路径" fill="#FFFFFF"></path>
                    <g id="编组" transform="translate(21.000000, 12.000000)">
                        <path d="M3.14467717,-3.53401519e-14 C24.869109,9.28510333 25.2067615,9.47793309 47.7843189,18.6531067 C51.2961181,20.0802481 54.5415342,20.1205768 56.7808712,18.3498302 C59.5300014,16.1759666 69.9552394,8.72819037 78.915456,11.6305354 C77.4887661,13.5612213 71.829671,23.8130303 70.83802,27.1864467 C69.8757818,30.4598059 70.264647,35.2045002 72.0046158,41.4205296 L79.9534019,56.7562593 C72.6387677,60.7117812 65.2205216,62.6895422 57.6986634,62.6895422 C39.9767009,62.6895422 33.137136,60.6837841 21.5779548,53.5726466 C12.0810404,47.730203 4.94050773,39.895194 1.24022271,26.4304911 C-2.11341032,14.2271955 2.30456476,0.856234947 3.14467717,-3.53401519e-14 Z" id="路径-2" fill="#FFCA00"></path>
                        <path d="M41.1644399,32.6028312 C43.4161315,32.7053058 44.8614011,31.8372858 45.0168178,30.3647461 C45.1722344,28.8922065 43.4560111,27.3365513 41.4273714,27.336315 C39.3987318,27.3360787 37.788067,28.6258966 37.7861391,29.9998951 C37.7842161,31.3738936 38.9127484,32.5003567 41.1644399,32.6028312 Z" id="椭圆形" fill="#000000" transform="translate(41.406375, 29.973658) rotate(16.000000) translate(-41.406375, -29.973658) "></path>
                    </g>
                    <g id="编组-2">
                        <ellipse id="椭圆形" fill="#000000" cx="5.82138009" cy="6.37104067" rx="5.40059347" ry="5.38958333"></ellipse>
                        <path d="M71.6525009,126.475721 C58.4166861,120.036413 48.3447394,111.881281 41.4366606,102.010324 C42.6174407,97.6514277 43.2078307,93.3487222 43.2078307,89.1022072 C43.2078307,87.6498161 42.1446048,86.2923891 40.1757819,85.4988182 C35.7700186,83.7229928 22.9250407,79.1188372 15.3075811,68.4380672 C11.7991562,63.5187528 9.78035302,59.3890941 8.36194104,54.2600499 C2.02076598,31.3300638 1.21517993,6.55386698 1.75380769,2.40063487 C1.6298604,1.47866183 3.38773003,0.400740091 4.94924759,1.18105907 C27.0030559,10.0706148 49.1916984,20.5738548 71.6525009,29.0455856 C73.0869517,29.5866295 74.0262987,29.3844342 75.7021777,29.0455856 C83.5557049,23.511871 92.0582378,17.8606594 104.603683,22.2888042 C104.779866,22.350991 100.243374,29.0455856 99.4306906,30.3248252 C97.573784,33.2477685 93.9886905,39.0050813 94.54465,44.9324213 C96.2810625,63.4451141 145.559115,125.705783 147,126.475721 C147.580296,126.785803 99.969677,140.252208 71.6525009,126.475721 Z" id="路径" stroke="#000000" stroke-width="7"></path>
                    </g>
                </g>
            </g>
        </g>
    </g>
</svg>